<svg version="1.1" id="Layer_1" xmlns="http://www.w3.org/2000/svg" xmlns:xlink="http://www.w3.org/1999/xlink" x="0px" y="0px"
	 width="100%" viewBox="0 0 288 288" enable-background="new 0 0 288 288" xml:space="preserve">
<path fill="#000000" opacity="1.000000" stroke="none" 
	d="
M166.629211,49.907021 
	C186.990692,53.654972 204.810699,61.667767 219.777237,75.561745 
	C239.427246,93.803535 250.719818,116.199898 252.341415,143.023376 
	C254.997696,186.961823 236.590103,220.140686 198.391510,241.114334 
	C143.007736,271.523804 72.844727,242.406906 53.691170,182.096008 
	C34.625557,122.062019 73.587097,58.966057 135.372253,49.823788 
	C145.645691,48.303646 155.921860,48.438404 166.629211,49.907021 
M152.499908,195.665207 
	C163.828903,195.667877 175.158127,195.632004 186.486801,195.693634 
	C190.581451,195.715912 195.200241,195.167755 195.207687,190.456833 
	C195.215195,185.713364 190.622086,185.271957 186.508682,185.284714 
	C163.184479,185.357056 139.859940,185.317474 116.535568,185.349731 
	C114.715477,185.352249 112.851555,185.413940 111.087311,185.805481 
	C109.004539,186.267700 107.417709,187.622116 107.307693,189.907089 
	C107.192986,192.289429 108.371994,194.188553 110.628838,194.970184 
	C112.153847,195.498352 113.877594,195.624985 115.513779,195.632248 
	C127.508965,195.685486 139.504486,195.663208 152.499908,195.665207 
M174.268082,143.349380 
	C174.146164,148.375122 175.766785,152.860794 178.833908,156.746262 
	C183.133286,162.192810 189.652771,162.887421 194.507629,158.610703 
	C202.564316,151.513458 203.131989,134.998871 195.584137,127.293457 
	C190.130554,121.726036 183.188812,122.155594 178.526764,128.481110 
	C175.486450,132.606262 173.833588,137.238724 174.268082,143.349380 
M124.502106,130.095032 
	C118.140907,121.759628 110.986320,121.135406 105.303162,128.419968 
	C99.748055,135.540405 99.617340,148.923080 105.032684,156.108627 
	C110.457802,163.307129 118.482162,163.212448 123.519821,155.753113 
	C128.936188,147.733032 129.075073,139.327362 124.502106,130.095032 
z"/>
</svg>